<?xml version="1.0" encoding="utf-8"?>
<svg version="1.1" xmlns="http://www.w3.org/2000/svg" xmlns:xlink="http://www.w3.org/1999/xlink" x="0px" y="0px" width="600px"
	 height="840px" viewBox="0 0 600 840" style="enable-background:new 0 0 600 840;" xml:space="preserve">
<style type="text/css">
	.st0{fill:#010202;}
	.st1{fill:none;}
	.st2{fill:#FFFFFF;}
	.st3{font-family:'Helvetica';}
	.st4{font-size:14px;}
	.st5{font-family:'Helvetica-Bold';}
</style>
<g>
	<rect x="24" y="14.7" class="st0" width="262" height="17"/>
	<rect x="24" y="115.7" class="st0" width="262" height="17"/>
	<rect x="24" y="636.7" class="st0" width="262" height="17"/>
	<rect x="319.4" y="653.7" class="st0" width="262" height="17"/>
	<rect x="319.4" y="737.7" class="st0" width="262" height="17"/>
	<rect x="319.4" y="401.7" class="st0" width="262" height="17"/>
	<rect x="319.4" y="501.7" class="st0" width="262" height="17"/>
	<rect x="319.4" y="215.7" class="st0" width="262" height="17"/>
	<rect x="319.4" y="14.7" class="st0" width="262" height="17"/>
</g>
<g>
	<rect x="309.3" y="1.1" class="st1" width="272.1" height="841.9"/>
	<text transform="matrix(1 0 0 1 425.1548 27.9209)"><tspan x="0" y="0" class="st2 st3 st4">Global</tspan><tspan x="-115.8" y="16.8" class="st3 st4">  </tspan><tspan x="-108" y="16.8" class="st5 st4">  :help :h</tspan><tspan x="-49.7" y="16.8" class="st3 st4"> - keyword</tspan><tspan x="-115.8" y="33.6" class="st5 st4">    :o file</tspan><tspan x="-62.9" y="33.6" class="st3 st4"> - open file</tspan><tspan x="-115.8" y="50.4" class="st5 st4">    :saveas</tspan><tspan x="-48.9" y="50.4" class="st3 st4"> file</tspan><tspan x="-115.8" y="67.2" class="st5 st4">    :close</tspan><tspan x="-59.8" y="67.2" class="st3 st4"> - close current pane</tspan><tspan x="-115.8" y="84" class="st5 st4">    K</tspan><tspan x="-90.1" y="84" class="st3 st4"> - man page for word</tspan><tspan x="-12.4" y="100.8" class="st2 st3 st4">Movement</tspan><tspan x="-115.8" y="117.6" class="st5 st4">    h</tspan><tspan x="-91.7" y="117.6" class="st3 st4"> - left</tspan><tspan x="-115.8" y="134.4" class="st5 st4">    j</tspan><tspan x="-96.4" y="134.4" class="st3 st4"> - down</tspan><tspan x="-115.8" y="151.2" class="st5 st4">    k</tspan><tspan x="-92.5" y="151.2" class="st3 st4"> - up</tspan><tspan x="-115.8" y="168" class="st5 st4">    l</tspan><tspan x="-96.4" y="168" class="st3 st4"> - right</tspan><tspan x="-115.8" y="184.8" class="st5 st4">    H</tspan><tspan x="-90.1" y="184.8" class="st3 st4"> - top of screen</tspan><tspan x="-115.8" y="201.6" class="st5 st4">    M</tspan><tspan x="-88.6" y="201.6" class="st3 st4"> - middle of screen</tspan><tspan x="-115.8" y="218.4" class="st5 st4">    L</tspan><tspan x="-91.7" y="218.4" class="st3 st4"> - bottom of screen</tspan><tspan x="-115.8" y="235.2" class="st5 st4">    w</tspan><tspan x="-89.4" y="235.2" class="st3 st4"> - forward to start of a word</tspan><tspan x="-115.8" y="252" class="st5 st4">    W</tspan><tspan x="-87" y="252" class="st3 st4"> - forward to start of a word</tspan><tspan x="-115.8" y="268.8" class="st5 st4">    e</tspan><tspan x="-92.5" y="268.8" class="st3 st4"> - forward to end of a word</tspan><tspan x="-115.8" y="285.6" class="st5 st4">    E</tspan><tspan x="-90.9" y="285.6" class="st3 st4"> - forward to end of a word</tspan><tspan x="-115.8" y="302.4" class="st5 st4">    b</tspan><tspan x="-91.7" y="302.4" class="st3 st4"> - backward to start of a word</tspan><tspan x="-115.8" y="319.2" class="st5 st4">    B</tspan><tspan x="-90.1" y="319.2" class="st3 st4"> - backward to start of a word</tspan><tspan x="-115.8" y="336" class="st5 st4">    %</tspan><tspan x="-87.8" y="336" class="st3 st4"> - move to matching character</tspan><tspan x="-115.8" y="352.8" class="st5 st4">    0</tspan><tspan x="-92.5" y="352.8" class="st3 st4"> - start of the line</tspan><tspan x="-115.8" y="369.6" class="st5 st4">    ^</tspan><tspan x="-92.1" y="369.6" class="st3 st4"> - first non-blank character of the line</tspan><tspan x="-115.8" y="386.4" class="st5 st4">    $</tspan><tspan x="-92.5" y="386.4" class="st3 st4"> - end of the line</tspan><tspan x="-115.8" y="403.2" class="st5 st4">    g_</tspan><tspan x="-83.9" y="403.2" class="st3 st4"> - goto last non-blank char of the line</tspan><tspan x="-115.8" y="420" class="st5 st4">    gg</tspan><tspan x="-83.1" y="420" class="st3 st4"> - goto first line of the document</tspan><tspan x="-115.8" y="436.8" class="st5 st4">    G</tspan><tspan x="-89.4" y="436.8" class="st3 st4"> - goto last line of the document</tspan><tspan x="-115.8" y="453.6" class="st5 st4">    5G</tspan><tspan x="-81.6" y="453.6" class="st3 st4"> - goto line 5</tspan><tspan x="-115.8" y="470.4" class="st5 st4">    fx</tspan><tspan x="-87.8" y="470.4" class="st3 st4"> - next occurrence of char x</tspan><tspan x="-115.8" y="487.2" class="st5 st4">    tx</tspan><tspan x="-87.8" y="487.2" class="st3 st4"> - before next occurrence of char x</tspan><tspan x="-115.8" y="504" class="st5 st4">    }</tspan><tspan x="-94.8" y="504" class="st3 st4"> - next paragraph or block</tspan><tspan x="-115.8" y="520.8" class="st5 st4">    {</tspan><tspan x="-94.8" y="520.8" class="st3 st4"> - previous paragraph or block</tspan><tspan x="-115.8" y="537.6" class="st5 st4">    zz</tspan><tspan x="-86.3" y="537.6" class="st3 st4"> - center cursor</tspan><tspan x="-115.8" y="554.4" class="st5 st4">    Ctrl + b</tspan><tspan x="-51.6" y="554.4" class="st3 st4"> - back one full screen</tspan><tspan x="-115.8" y="571.2" class="st5 st4">    Ctrl + f</tspan><tspan x="-55.5" y="571.2" class="st3 st4"> - forward one full screen</tspan><tspan x="-115.8" y="588" class="st5 st4">    Ctrl + d</tspan><tspan x="-51.6" y="588" class="st3 st4"> - forward 1/2 a screen</tspan><tspan x="-115.8" y="604.8" class="st5 st4">    Ctrl + u</tspan><tspan x="-51.6" y="604.8" class="st3 st4"> - back 1/2 a screen</tspan><tspan x="2.7" y="621.6" class="st2 st3 st4">Insert</tspan><tspan x="-115.8" y="638.4" class="st5 st4">    i</tspan><tspan x="-96.4" y="638.4" class="st3 st4"> - insert before the cursor</tspan><tspan x="-115.8" y="655.2" class="st5 st4">    I</tspan><tspan x="-96.4" y="655.2" class="st3 st4"> - insert at the beginning of the line</tspan><tspan x="-115.8" y="672" class="st5 st4">    a</tspan><tspan x="-92.5" y="672" class="st3 st4"> - append after the cursor</tspan><tspan x="-115.8" y="688.8" class="st5 st4">   </tspan><tspan x="-104.1" y="688.8" class="st5 st4"> </tspan><tspan x="-100.8" y="688.8" class="st5 st4">A</tspan><tspan x="-90.7" y="688.8" class="st3 st4"> - append at the end of the line</tspan><tspan x="-115.8" y="705.6" class="st5 st4">    o</tspan><tspan x="-91.7" y="705.6" class="st3 st4"> - append a new line below</tspan><tspan x="-115.8" y="722.4" class="st5 st4">    O</tspan><tspan x="-89.4" y="722.4" class="st3 st4"> - append a new line above</tspan><tspan x="-115.8" y="739.2" class="st5 st4">    ea</tspan><tspan x="-84.7" y="739.2" class="st3 st4"> - append at the end of the word</tspan><tspan x="-115.8" y="756" class="st5 st4">    Esc</tspan><tspan x="-75.3" y="756" class="st3 st4"> - exit insert mode</tspan></text>
	<rect x="10.4" y="1.1" class="st1" width="274.1" height="841.9"/>
	<text transform="matrix(1 0 0 1 135.3316 27.9209)"><tspan x="0" y="0" class="st2 st3 st4">Edit</tspan><tspan x="-125" y="16.8" class="st5 st4">    r</tspan><tspan x="-104" y="16.8" class="st3 st4"> - replace</tspan><tspan x="-125" y="33.6" class="st5 st4">    J</tspan><tspan x="-101.6" y="33.6" class="st3 st4"> - join line below</tspan><tspan x="-125" y="50.4" class="st5 st4">    cc</tspan><tspan x="-93.8" y="50.4" class="st3 st4"> - change line</tspan><tspan x="-125" y="67.2" class="st5 st4">    cw</tspan><tspan x="-90.7" y="67.2" class="st3 st4"> - change to end of word</tspan><tspan x="-125" y="84" class="st5 st4">    c$</tspan><tspan x="-93.8" y="84" class="st3 st4"> - change to end of line</tspan><tspan x="-125" y="100.8" class="st5 st4">    s</tspan><tspan x="-101.6" y="100.8" class="st3 st4"> - delete character and substitute text</tspan><tspan x="-125" y="117.6" class="st5 st4">    S</tspan><tspan x="-100.1" y="117.6" class="st3 st4"> - delete line and substitute text (cc)</tspan><tspan x="-125" y="134.4" class="st5 st4">    xp</tspan><tspan x="-93.1" y="134.4" class="st3 st4"> - transpose two letters</tspan><tspan x="-125" y="151.2" class="st5 st4">    u</tspan><tspan x="-100.9" y="151.2" class="st3 st4"> - undo</tspan><tspan x="-125" y="168" class="st5 st4">    Ctrl + r</tspan><tspan x="-63.9" y="168" class="st3 st4"> - redo</tspan><tspan x="-125" y="184.8" class="st5 st4">    .</tspan><tspan x="-105.5" y="184.8" class="st3 st4"> - repeat last command</tspan><tspan x="-31.5" y="201.6" class="st2 st3 st4">Cut and paste</tspan><tspan x="-125" y="218.4" class="st5 st4">    yy</tspan><tspan x="-93.8" y="218.4" class="st3 st4"> - yank line</tspan><tspan x="-125" y="235.2" class="st5 st4">    yw</tspan><tspan x="-90.7" y="235.2" class="st3 st4"> - yank characters upto next word</tspan><tspan x="-125" y="252" class="st5 st4">    y$</tspan><tspan x="-93.8" y="252" class="st3 st4"> - yank to end of line</tspan><tspan x="-125" y="268.8" class="st5 st4">    p</tspan><tspan x="-100.9" y="268.8" class="st3 st4"> - put clipboard after cursor</tspan><tspan x="-125" y="285.6" class="st5 st4">    P</tspan><tspan x="-100.1" y="285.6" class="st3 st4"> - put before cursor</tspan><tspan x="-125" y="302.4" class="st5 st4">    dd</tspan><tspan x="-92.3" y="302.4" class="st3 st4"> - delete a line</tspan><tspan x="-125" y="319.2" class="st5 st4">    dw</tspan><tspan x="-90" y="319.2" class="st3 st4"> - delete characters upto next word</tspan><tspan x="-125" y="336" class="st5 st4">    D</tspan><tspan x="-99.3" y="336" class="st3 st4"> - delete to the end of the line</tspan><tspan x="-125" y="352.8" class="st5 st4">    d$</tspan><tspan x="-93.1" y="352.8" class="st3 st4"> - delete to the end of the line</tspan><tspan x="-125" y="369.6" class="st5 st4">    x</tspan><tspan x="-101.6" y="369.6" class="st3 st4"> - delete character</tspan><tspan x="0.4" y="386.4" class="st2 st3 st4">Exit</tspan><tspan x="-125" y="403.2" class="st5 st4">    :w</tspan><tspan x="-93.9" y="403.2" class="st3 st4"> - write file</tspan><tspan x="-125" y="420" class="st5 st4">    :w !sudo tee %</tspan><tspan x="-11.4" y="420" class="st3 st4"> - sudo write current file</tspan><tspan x="-125" y="436.8" class="st5 st4">    :wq or :x or ZZ</tspan><tspan x="-12.2" y="436.8" class="st3 st4"> - write and quit</tspan><tspan x="-125" y="453.6" class="st5 st4">    :q</tspan><tspan x="-96.2" y="453.6" class="st3 st4"> - quit (no unsaved changes)</tspan><tspan x="-125" y="470.4" class="st5 st4">    :q! or ZQ</tspan><tspan x="-50.3" y="470.4" class="st3 st4"> - quit discard unsaved changes</tspan><tspan x="-48.6" y="487.2" class="st2 st3 st4">Search and replace</tspan><tspan x="-125" y="504" class="st5 st4">    /pattern</tspan><tspan x="-58.1" y="504" class="st3 st4"> - search pattern</tspan><tspan x="-125" y="520.8" class="st5 st4">    ?pattern</tspan><tspan x="-53.4" y="520.8" class="st3 st4"> - search backward</tspan><tspan x="-125" y="537.6" class="st5 st4">    \vpattern</tspan><tspan x="-50.3" y="537.6" class="st3 st4"> - no escaping</tspan><tspan x="-125" y="554.4" class="st5 st4">    n</tspan><tspan x="-100.9" y="554.4" class="st3 st4"> - repeat in same direction</tspan><tspan x="-125" y="571.2" class="st5 st4">    N</tspan><tspan x="-99.3" y="571.2" class="st3 st4"> - repeat in opposite direction</tspan><tspan x="-125" y="588" class="st5 st4">    :%s/x/y/g</tspan><tspan x="-48.7" y="588" class="st3 st4"> - replace x with y in file</tspan><tspan x="-125" y="604.8" class="st5 st4">    :%s/x/y/gc</tspan><tspan x="-40.9" y="604.8" class="st3 st4"> - replace with confirmations</tspan><tspan x="-125" y="621.6" class="st5 st4">    :noh</tspan><tspan x="-79.1" y="621.6" class="st3 st4"> - remove matches highlighting</tspan><tspan x="-7" y="638.4" class="st2 st3 st4">Marks</tspan><tspan x="-125" y="655.2" class="st5 st4">    :marks</tspan><tspan x="-63.5" y="655.2" class="st3 st4"> - list</tspan><tspan x="-125" y="672" class="st5 st4">    ma</tspan><tspan x="-89.2" y="672" class="st3 st4"> - set mark</tspan><tspan x="-23.1" y="672" class="st3 st4"> A</tspan><tspan x="-125" y="688.8" class="st5 st4">    `a</tspan><tspan x="-97" y="688.8" class="st3 st4"> - jump to mark</tspan><tspan x="-3.6" y="688.8" class="st3 st4"> A</tspan><tspan x="-125" y="705.6" class="st5 st4">    y`a</tspan><tspan x="-89.2" y="705.6" class="st3 st4"> - yank text tomark</tspan><tspan x="26" y="705.6" class="st3 st4"> A</tspan><tspan x="-10.9" y="722.4" class="st2 st3 st4">Macros</tspan><tspan x="-125" y="739.2" class="st5 st4">    qa</tspan><tspan x="-93.1" y="739.2" class="st3 st4"> - record macro a</tspan><tspan x="-125" y="756" class="st5 st4">    q</tspan><tspan x="-100.9" y="756" class="st3 st4"> - stop recording macro</tspan><tspan x="-125" y="772.8" class="st5 st4">    @a</tspan><tspan x="-88" y="772.8" class="st3 st4"> - run macro a</tspan><tspan x="-125" y="789.6" class="st3 st4">    @@ - rerun last run macro</tspan></text>
</g>
</svg>
